<?xml version="1.0" encoding="UTF-8" standalone="no"?>
<svg
   xmlns:dc="http://purl.org/dc/elements/1.1/"
   xmlns:cc="http://creativecommons.org/ns#"
   xmlns:rdf="http://www.w3.org/1999/02/22-rdf-syntax-ns#"
   xmlns:svg="http://www.w3.org/2000/svg"
   xmlns="http://www.w3.org/2000/svg"
   xmlns:sodipodi="http://sodipodi.sourceforge.net/DTD/sodipodi-0.dtd"
   xmlns:inkscape="http://www.inkscape.org/namespaces/inkscape"
   version="1.1"
   id="Capa_1"
   width="40"
   height="30"
   viewBox="0 0 356.379 356.379"
   style="enable-background:new 0 0 356.379 356.379;"
   xml:space="preserve"
   inkscape:version="0.91 r"
   sodipodi:docname="beer.svg"><metadata
     id="metadata15"><rdf:RDF><cc:Work
         rdf:about=""><dc:format>image/svg+xml</dc:format><dc:type
           rdf:resource="http://purl.org/dc/dcmitype/StillImage" /><dc:title></dc:title></cc:Work></rdf:RDF></metadata><defs
     id="defs13" /><sodipodi:namedview
     pagecolor="#ffffff"
     bordercolor="#666666"
     borderopacity="1"
     objecttolerance="10"
     gridtolerance="10"
     guidetolerance="10"
     inkscape:pageopacity="0"
     inkscape:pageshadow="2"
     inkscape:window-width="1366"
     inkscape:window-height="716"
     id="namedview11"
     showgrid="false"
     inkscape:zoom="1.3244327"
     inkscape:cx="197.64613"
     inkscape:cy="175.72951"
     inkscape:window-x="0"
     inkscape:window-y="0"
     inkscape:window-maximized="1"
     inkscape:current-layer="Capa_1" /><g
     id="g3"
     transform="matrix(1.0796084,0,0,1.0042373,-2.8597714,0)"><path
       style="fill:#231f20"
       d="m 118.094,198.89 c -5.523,0 -10,4.477 -10,10 l 0,78.494 c 0,5.523 4.477,10 10,10 5.523,0 10,-4.477 10,-10 l 0,-78.494 c 0,-5.523 -4.477,-10 -10,-10 z"
       id="path5"
       inkscape:connector-curvature="0" /><path
       style="fill:#231f20"
       d="m 193.751,198.89 c -5.523,0 -10,4.477 -10,10 l 0,78.494 c 0,5.523 4.477,10 10,10 5.523,0 10,-4.477 10,-10 l 0,-78.494 c 0,-5.523 -4.477,-10 -10,-10 z"
       id="path7"
       inkscape:connector-curvature="0" /><path
       style="fill:#231f20"
       d="m 280.494,123.867 -11.578,0 0,-11.382 c 4.444,-7.341 7.006,-15.942 7.006,-25.132 0,-24.768 -18.595,-45.274 -42.557,-48.293 C 228.889,16.809 209.192,0 185.644,0 171.957,0 159.139,5.683 150.01,15.518 c -4.677,-1.455 -9.575,-2.209 -14.48,-2.209 -18.208,0 -34.761,10.32 -43.062,26.005 -2.59,-0.424 -5.218,-0.637 -7.87,-0.637 -26.84,0 -48.675,21.836 -48.675,48.676 0,9.19 2.562,17.791 7.006,25.132 l 0,183.894 c 0,33.084 26.916,60 60,60 l 105.988,0 c 30.546,0 55.817,-22.951 59.516,-52.512 l 12.061,0 c 22.035,0 39.962,-17.927 39.962,-39.963 l 0,-100.073 c 10e-4,-22.036 -17.927,-39.964 -39.962,-39.964 z M 84.598,58.677 c 3.51,0 6.949,0.633 10.222,1.882 2.612,0.997 5.522,0.854 8.025,-0.393 2.502,-1.247 4.369,-3.485 5.146,-6.17 3.524,-12.18 14.849,-20.687 27.539,-20.687 4.612,0 9.023,1.069 13.112,3.177 4.561,2.35 10.161,0.869 12.961,-3.431 C 166.928,24.88 175.915,20 185.644,20 c 15.776,0 28.617,12.807 28.675,28.57 -0.002,0.082 -0.003,0.165 -0.003,0.229 0,2.783 1.16,5.44 3.201,7.333 2.041,1.892 4.775,2.849 7.553,2.639 0.833,-0.063 1.545,-0.094 2.177,-0.094 15.811,0 28.675,12.864 28.675,28.676 0,15.812 -12.864,28.676 -28.675,28.676 l -84.906,0 c -5.523,0 -10,4.477 -10,10 l 0,36.685 c 0,5.489 -4.465,9.954 -9.953,9.954 -5.489,0 -9.955,-4.465 -9.955,-9.954 l 0,-36.685 c 0,-5.523 -4.477,-10 -10,-10 l -17.835,0 c -15.812,0 -28.675,-12.864 -28.675,-28.676 0,-15.812 12.863,-28.676 28.675,-28.676 z m 164.319,237.702 c 0,22.056 -17.944,40 -40,40 l -105.989,0 c -22.056,0 -40,-17.944 -40,-40 l 0,-165.458 c 6.531,3.262 13.887,5.107 21.669,5.107 l 7.836,0 0,26.685 c 0,16.517 13.438,29.954 29.955,29.954 16.516,0 29.953,-13.438 29.953,-29.954 l 0,-26.685 74.906,0 c 7.783,0 15.139,-1.846 21.669,-5.107 l 0,165.458 z m 51.54,-32.475 c 0,11.008 -8.955,19.963 -19.962,19.963 l -11.578,0 0,-140 11.578,0 c 11.007,0 19.962,8.956 19.962,19.964 l 0,100.073 z"
       id="path9"
       inkscape:connector-curvature="0" /></g><path
     style="opacity:1;fill:#ffd83d;fill-opacity:1;fill-rule:nonzero;stroke:#eac328;stroke-width:1.25788629;stroke-linecap:square;stroke-linejoin:bevel;stroke-miterlimit:0.80000001;stroke-dasharray:none;stroke-dashoffset:0;stroke-opacity:1"
     d="m 94.468873,334.82866 c -5.199367,-1.69056 -14.8986,-7.87791 -18.430036,-11.7569 -1.169894,-1.28503 -3.913851,-5.7485 -6.097682,-9.91882 l -3.970602,-7.58239 -0.01592,-86.23706 -0.01592,-86.23706 3.668165,1.01938 c 2.017491,0.56067 8.987004,1.76823 15.487808,2.68348 l 11.819643,1.66409 0,16.5098 c 0,13.39375 0.601907,17.60726 3.189101,22.32453 12.0562,21.98227 45.81772,22.13937 58.22939,0.27095 3.29589,-5.80711 3.79333,-8.83976 3.79333,-23.1263 l 0,-16.44275 38.71952,-0.009 c 34.76206,-0.008 51.52186,-1.06434 60.92486,-3.84039 3.08051,-0.90945 3.1328,0.77395 2.69528,86.76281 -0.50169,98.59589 0.14575,93.3819 -13.07892,105.32006 -11.28786,10.18973 -13.39073,10.43969 -86.69815,10.30534 -41.03581,-0.0752 -67.147689,-0.71108 -70.219855,-1.70998 z m 38.311947,-39.11522 c 3.10829,-2.89129 3.26059,-5.05493 3.26059,-46.32155 l 0,-43.28859 -4.00163,-3.72226 c -5.07775,-4.72325 -9.74313,-4.72325 -14.82088,0 l -4.00163,3.72226 0,43.28859 c 0,41.26662 0.1523,43.43026 3.26059,46.32155 1.81144,1.68497 5.43432,3.03295 8.15149,3.03295 2.71715,0 6.34003,-1.34798 8.15147,-3.03295 z M 215.0183,295.376 c 2.15389,-2.86043 2.53788,-9.95673 2.53788,-46.90078 l 0,-43.5304 -4.2956,-3.14303 c -5.64108,-4.1275 -9.63824,-3.96812 -14.52689,0.57925 l -4.00164,3.72226 0,43.28859 c 0,41.26662 0.1523,43.43026 3.26059,46.32155 4.5687,4.24975 13.70792,4.06861 17.02566,-0.33744 z"
     id="path4143"
     inkscape:connector-curvature="0" /><path
     style="opacity:1;fill:#ffffff;fill-opacity:1;fill-rule:nonzero;stroke:#eac328;stroke-width:1.25788629;stroke-linecap:square;stroke-linejoin:bevel;stroke-miterlimit:0.80000001;stroke-dasharray:none;stroke-dashoffset:0;stroke-opacity:1"
     d="m 122.30223,168.88292 c -3.05832,-3.61658 -3.37893,-6.04041 -3.37893,-25.54512 0,-27.45394 0.48565,-26.89679 -24.481965,-28.0867 C 77.834203,114.45964 76.343176,114.12144 70.686814,109.86298 55.104962,98.131978 54.323601,79.077704 68.935045,67.144321 c 8.152041,-6.65789 16.884973,-8.662058 27.822714,-6.385184 10.798021,2.247788 14.399681,0.680042 18.566321,-8.081634 3.39753,-7.14438 12.93849,-15.740301 19.05603,-17.168513 3.7989,-0.886899 11.53881,-0.378991 26.31733,1.726995 6.30532,0.898529 7.09987,0.578916 12.79525,-5.146948 11.88595,-11.949559 26.86385,-14.376746 40.19363,-6.513422 7.9952,4.716424 12.05692,10.997405 14.2847,22.089676 1.89079,9.414319 3.67347,10.918718 14.12778,11.922371 11.81637,1.134414 21.71184,6.603533 26.60714,14.705477 5.50158,9.105346 4.45107,21.896567 -2.45902,29.941521 -9.3693,10.90802 -9.99811,11.01276 -66.1397,11.0154 -33.93491,0.002 -51.36602,0.55804 -54.12618,1.72786 -6.02099,2.55182 -7.49419,8.64953 -7.49419,31.0191 0,19.11385 -0.18805,20.28271 -3.62334,22.52089 -5.19468,3.38449 -8.70276,2.92786 -12.56128,-1.63499 z"
     id="path4137"
     inkscape:connector-curvature="0"
     clip-path="none" /><path
     style="opacity:1;fill:#ffffff;fill-opacity:1;fill-rule:nonzero;stroke:#eac328;stroke-width:1.25788629;stroke-linecap:square;stroke-linejoin:bevel;stroke-miterlimit:0.80000001;stroke-dasharray:none;stroke-dashoffset:0;stroke-opacity:1"
     d="m 288.47405,214.5818 0,-68.9998 8.55905,0.006 c 10.61078,0.007 18.44415,4.10517 21.69952,11.35242 3.36326,7.48746 3.44979,107.6033 0.0994,115.062 -3.68665,8.20741 -9.74273,11.5795 -20.79611,11.5795 l -9.5619,0 0,-68.9998 z"
     id="path4139"
     inkscape:connector-curvature="0" /></svg>
